<svg xmlns="http://www.w3.org/2000/svg" width="513" height="700" fill="none"><g clip-path="url(#a)"><path fill="#F26C4F" d="m489.536 608.752 6.743-5.339A27.746 27.746 0 0 0 491.361 591c-.483 8.015-8.882 13.12-11.957 20.537a16.692 16.692 0 0 0 .909 14.44l.462 6.082a27.961 27.961 0 0 0 9.443-7.385 27.954 27.954 0 0 0 5.485-10.66c.559-2.198.84-4.458.835-6.727-3.393.913-7.002 1.465-7.002 1.465ZM473.617 662.446a77.615 77.615 0 0 1-5.038.977l4.161-3.294c-.942-2.757-1.454-5.533-.843-8.402a27.572 27.572 0 0 0-10.326 21.02 27.55 27.55 0 0 0 9.57 21.376l2.068-5.739a16.696 16.696 0 0 0 4.731-13.673c-.524-4.242-2.676-8.255-4.323-12.265ZM470.77 595.657a46.566 46.566 0 0 0-4.014 3.983l2.149-4.96a5.949 5.949 0 0 0-4.993.331c-1.772 1.039-2.833 3.058-3.034 5.102a11.182 11.182 0 0 0 1.281 5.946 17.271 17.271 0 0 0 7.733 7.743c1.64-2.531 3.179-5.192 3.834-8.134.666-2.99.302-6.344-1.609-8.738a6.804 6.804 0 0 0-1.347-1.273ZM504.115 650.211l6.251-4.949c.516-2.806.588-5.674.214-8.502-4.2 6.844-14.013 7.391-20.219 12.487a16.698 16.698 0 0 0-5.998 13.167l-2.456 5.583a27.966 27.966 0 0 0 21.667-8.89 27.589 27.589 0 0 0 5.789-9.922 78.154 78.154 0 0 1-5.248 1.026Z"/><path fill="#3F3D56" d="M469.918 692.995a61.888 61.888 0 0 1-3.795 4.447c.497.15.98.296 1.454.442a62.97 62.97 0 0 0 3.881-4.647 64.944 64.944 0 0 0 5.221-8.037 66.276 66.276 0 0 0 6.561-17.171c.027-.105.05-.205.073-.31.369-1.649.674-3.317.911-4.989.05-.337.096-.678.141-1.016.114-.924.21-1.849.287-2.774.28-3.371.289-6.76.027-10.133a66.054 66.054 0 0 0-4.004-18.064c-.082-.228-.169-.455-.255-.683a66.075 66.075 0 0 0-9.454-16.711 66.547 66.547 0 0 0-1.49-1.836.585.585 0 0 0-.492-.225.595.595 0 0 0-.469.27.699.699 0 0 0-.009.92c.287.342.574.688.847 1.039.342.415.67.839.989 1.267a64.876 64.876 0 0 1 12.766 31.859c.79 7.133.36 14.348-1.271 21.336h-.005a64.222 64.222 0 0 1-8.638 20.397 61.089 61.089 0 0 1-3.276 4.619Z"/><path fill="#CCC" d="M457.857 699.566a39.19 39.19 0 0 1 17.86 1.031c.846.25 1.207-1.069.364-1.318a40.753 40.753 0 0 0-18.587-1.031c-.865.153-.498 1.47.363 1.318Z"/><path fill="#F26C4F" d="M159.429 611.105c23.573-9.087 31.323-45.924 17.31-82.279-14.014-36.355-44.483-58.46-68.056-49.374-23.573 9.087-31.323 45.924-17.31 82.279 14.014 36.355 44.483 58.46 68.056 49.374Z"/><path fill="#3F3D56" d="M161.347 663.348a.612.612 0 0 0 .604-.524c.025-.182 2.564-18.487.284-42.815-2.105-22.468-8.865-54.829-29.117-81.407a.612.612 0 0 0-.856-.116.609.609 0 0 0-.114.856c20.076 26.348 26.782 58.472 28.873 80.781 2.266 24.186-.252 42.349-.278 42.529a.613.613 0 0 0 .604.696Z"/><path fill="#3F3D56" d="M151.224 573.746a.606.606 0 0 0 .58-.422.607.607 0 0 0-.221-.682c-.074-.053-7.482-5.391-18.558-9.447-10.239-3.748-25.808-7.146-41.837-2.045a.601.601 0 0 0-.357.301.607.607 0 0 0 .261.822.595.595 0 0 0 .466.039c15.7-4.996 30.988-1.654 41.048 2.029 10.917 3.997 18.188 9.236 18.26 9.288a.606.606 0 0 0 .358.117Z"/><path fill="#F26C4F" d="M211.721 612.254c-23.573-9.087-31.323-45.924-17.31-82.279 14.014-36.355 44.483-58.46 68.056-49.374 23.573 9.087 31.323 45.924 17.31 82.279-14.014 36.355-44.483 58.46-68.056 49.374Z"/><path fill="#3F3D56" d="M209.802 664.497a.61.61 0 0 1-.603-.524c-.026-.182-2.564-18.487-.284-42.815 2.105-22.468 8.865-54.829 29.117-81.407a.612.612 0 0 1 .856-.116.609.609 0 0 1 .114.856c-20.076 26.348-26.782 58.472-28.873 80.781-2.266 24.186.252 42.349.278 42.529a.613.613 0 0 1-.605.696Z"/><path fill="#3F3D56" d="M219.926 574.895a.611.611 0 0 1-.359-1.104c.074-.053 7.482-5.391 18.558-9.447 10.239-3.748 25.808-7.146 41.837-2.045a.599.599 0 0 1 .357.301.612.612 0 0 1-.075.674.598.598 0 0 1-.187.148.593.593 0 0 1-.465.039c-15.7-4.996-30.988-1.654-41.048 2.029-10.917 3.997-18.188 9.236-18.26 9.288a.606.606 0 0 1-.358.117Z"/><path fill="#F26C4F" d="M238.05 237.82c-7.55 3.86-16.37 3.62-24.62 4.11-8.25.49-16.18 1.52-22.16 7.12-6.18 5.79-7.44 14.49-5.89 22.48 1.73 8.98 6.67 16.49 12.52 23.34 6.29 7.37 13.47 14.19 18.06 22.83 4.06 7.64 5.38 16.36 4.23 24.91-2.37 17.71-13.93 33.33-28.59 43.03-16.88 11.18-36.95 16.01-56.54 19.99-2.49.51-4.98 1-7.47 1.49-1.58.31-.91 2.72.66 2.41 19.74-3.88 39.95-7.94 57.8-17.65 8.21-4.46 15.76-10.11 21.83-17.25 5.68-6.68 10.16-14.43 12.78-22.82 2.62-8.39 3.22-16.82 1.31-25.11-2.1-9.13-7.51-16.74-13.56-23.7-6.05-6.96-13.19-13.78-17.34-22.33-3.55-7.3-5.61-16.71-2.02-24.39 3.6-7.7 11.58-10.59 19.51-11.46 8.33-.91 16.92-.32 25.06-2.62 1.96-.55 3.87-1.3 5.68-2.23 1.43-.73.17-2.89-1.26-2.16l.01.01Z"/><path fill="#F26C4F" d="M236.84 244.42 342.58 81.81 236.84 0 131.09 81.81l105.75 162.61Z"/><path fill="#2F2E43" d="M237.33 0h-1v244.42h1V0Z"/><path fill="#2F2E43" d="m131.3 82.26-.42-.91c.27-.12 27.21-12.57 66.6-18.75 36.36-5.7 91.1-7.07 145.32 18.75l-.43.9c-53.98-25.71-108.49-24.34-144.71-18.67-39.26 6.15-66.1 18.54-66.36 18.67v.01Z"/><path fill="#FAAFB2" d="m69.72 447.94 17.15-.47-7.94-22.08-13.92 5 4.71 17.55Z"/><path fill="#FAAFB2" d="M73.74 433.15c8.975 0 16.25-7.275 16.25-16.25s-7.275-16.25-16.25-16.25-16.25 7.275-16.25 16.25 7.275 16.25 16.25 16.25ZM58.15 688.54h12.73v-18.06H58.15v18.06Z"/><path fill="#2F2E43" d="M69.46 698.89c-2.18.2-13.07 1.06-13.61-1.44-.5-2.29.23-4.69.34-5.01 1.05-10.42 1.44-10.53 1.67-10.6.37-.11 1.45.4 3.21 1.54l.11.07.02.13c.03.16.81 3.99 4.5 3.4 2.53-.4 3.35-.96 3.61-1.23-.22-.1-.48-.27-.67-.56-.27-.42-.32-.97-.14-1.63.48-1.73 1.9-4.29 1.96-4.4l.16-.29 14.47 9.76 8.93 2.55c.67.19 1.22.67 1.49 1.32.38.9.14 1.95-.58 2.6-1.62 1.46-4.85 3.95-8.23 4.27-.9.08-2.09.12-3.43.12-5.59 0-13.74-.58-13.8-.59l-.01-.01Z"/><path fill="#FAAFB2" d="m4.319 683.222 12.482 2.497 3.542-17.709-12.482-2.497-3.542 17.709Z"/><path fill="#2F2E43" d="M13.42 695.59c-2.17-.23-13.02-1.53-13.07-4.08-.04-2.35 1.15-4.55 1.32-4.85 3.07-10.01 3.47-10.05 3.72-10.07.39-.03 1.35.68 2.85 2.14l.09.09v.13c0 .17.01 4.07 3.74 4.22 2.56.1 3.47-.28 3.78-.5-.19-.14-.42-.36-.55-.68-.19-.47-.13-1.02.18-1.63.81-1.6 2.7-3.83 2.78-3.93l.21-.25 12.27 12.41 8.26 4.26c.62.32 1.06.9 1.2 1.59.19.96-.24 1.94-1.08 2.44-1.88 1.11-5.53 2.93-8.91 2.57-.9-.1-2.07-.3-3.38-.56-5.48-1.1-13.36-3.26-13.42-3.28l.01-.02ZM91.37 524.94l-60.63-6.46-27.9 150.38 19.41 2.42 32.74-99.04-1.62 101.87h21.02l16.98-149.17Z"/><path fill="#DFDFE0" d="m88.13 438.47-33.14-3.68L22.25 540.7s16.57-3.23 26.68 7.28 44.91-1.43 44.91-1.43l-5.71-108.09v.01Z"/><path fill="#FAAFB2" d="M119.32 550.05c.9 4.44-.75 8.5-3.69 9.06-2.94.56-6.05-2.58-6.95-7.03-.39-1.77-.32-3.61.18-5.35l-3.57-18.87 9.23-1.46 2.54 18.76c1.15 1.43 1.92 3.11 2.25 4.89h.01Z"/><path fill="#DFDFE0" d="m75.41 437.22 12.72 1.25c6.13 1.3 10.9 6.11 12.16 12.25l18.5 89.97h-12.51L75.4 437.21l.01.01Z"/><path fill="#2F2E43" d="m64.65 427.02 1.6-.73c-.67-3.02-1.28-6.42.42-9 .94-1.42 2.54-2.54 2.74-4.23.17-1.4-.72-2.83-.33-4.19.41-1.43 2.01-2.09 3.42-2.57 2.21-.74 4.46-1.49 6.78-1.55 2.33-.05 4.79.7 6.27 2.49.46.55.81 1.19 1.15 1.81 1.17 2.12 3.19 6.22 3.19 6.22s-.08-.94-.07-2.81c.59-1.64 1.43-3.23 1.57-4.96.17-2.09-.7-4.14-1.88-5.87-2.68-3.93-7.19-6.66-11.95-6.87-4.76-.22-9.12.11-11.53 4.22-.45.77-.82 1.6-1.39 2.29-1.05 1.28-2.64 1.96-3.93 2.99-2.87 2.3-4.89 6.53-4.69 10.21.2 3.68 1.55 7.18 2.89 10.61 1.15 2.96 3.52 5.97 6.52 7.01-.32-1.59-.63-3.18-.95-4.77"/><path fill="#DFDFE0" d="m75.03 439.15-.19.26-5.78 7.9-6.67 9.13-1.5 2.05-5.5 7.53s-1.76 2.09-4.66 4.71l-.06.05c-1.04.94-2.22 1.94-3.52 2.94-7.35 5.66-18.41 11.19-28.01 3.76C6.95 468.04 33.69 447 47.3 437.4a17.306 17.306 0 0 1 15.37-2.31l12.36 4.06Z"/><path fill="#FAAFB2" d="M74.72 450.25c-1.23.82-2.62 1.37-4.08 1.64-.33.06-.66.11-1 .14l-6.92 5.11-1.83 1.35-6.48 4.79-5.39-7.64 9.95-6.57 6.08-4.02c.91-1.57 2.18-2.9 3.72-3.85 1.88-1.21 3.92-1.81 5.69-1.81h.01c.13 0 .25 0 .37.02 1.65.07 3.04.7 3.81 1.88 1.65 2.5-.12 6.51-3.93 8.96Z"/><path fill="#DFDFE0" d="m63.91 459.7-5.08-10.96-22.51 8.4 10.83 16.58 16.76-14.02Z"/><path fill="#2F2E43" d="m76.73 473.83-4.31-19.51c-2.11-9.55 3.3-18.99 12.59-21.94 59.96-19.09 85.59-51.21 95.53-68.66 32.19-56.51 55.6-118.85 55.83-119.47l.94.35c-.23.62-23.66 63.04-55.9 119.62-23.33 40.95-70.22 60.88-96.1 69.12-8.79 2.8-13.91 11.73-11.91 20.77l4.31 19.51-.98.21Z"/><path fill="#FAAFB2" d="M74.72 450.25c-1.23.82-2.62 1.37-4.08 1.64-.98-1.33-1.55-2.9-1.58-4.58v-.12c0-3.36 2.18-6.28 5.4-7.8h.01c.18-.09-.19.07 0 0l.37.02c1.65.07 3.04.7 3.81 1.88 1.65 2.5-.12 6.51-3.93 8.96Z"/><path fill="#2F2E43" d="M395.806 399.188s-12.5-3.03-20.07 15.27c-6.31 15.25-10.78 23.4-5.66 28.94 1.83 1.98 4.44 3.05 7.14 3.14l28.82.94s10.58-27.74 4.15-37.77c-6.43-10.03-14.37-10.52-14.37-10.52h-.01Z"/><path fill="#FAAFB2" d="m401.776 445.188-13.86 4.55v-19.95h12.57l1.29 15.4ZM391.136 686.958h-12.98l-7.53-69.37h20.07l.44 69.37Z"/><path fill="#2F2E43" d="M365.516 698.107c-1.37 0-2.58-.03-3.5-.12-3.45-.32-6.74-2.859-8.39-4.349a2.35 2.35 0 0 1 .93-4l9.11-2.601 14.75-9.949.16.3c.06.11 1.51 2.719 2 4.479.18.67.14 1.231-.14 1.661-.19.3-.46.469-.68.569.27.28 1.1.85 3.68 1.26 3.77.6 4.55-3.299 4.59-3.469l.02-.13.11-.07c1.79-1.15 2.89-1.681 3.27-1.571.24.07.64.19 1.7 10.81.11.33.86 2.78.35 5.11-.56 2.54-11.66 1.671-13.88 1.471-.06 0-8.38.599-14.08.599Z"/><path fill="#FAAFB2" d="M420.466 686.958h-12.98l-7.53-69.37h20.07l.44 69.37Z"/><path fill="#2F2E43" d="M394.846 698.107c-1.37 0-2.58-.03-3.5-.12-3.45-.32-6.74-2.859-8.39-4.349a2.35 2.35 0 0 1 .93-4l9.11-2.601 14.75-9.949.16.3c.06.11 1.51 2.719 2 4.479.18.67.14 1.231-.14 1.661-.19.3-.46.469-.68.569.27.28 1.1.85 3.68 1.26 3.77.6 4.55-3.299 4.59-3.469l.02-.13.11-.07c1.79-1.15 2.9-1.681 3.27-1.571.24.07.64.19 1.7 10.81.11.33.86 2.78.35 5.11-.55 2.54-11.66 1.671-13.88 1.471-.06 0-8.38.599-14.08.599Z"/><path fill="#DFDFE0" d="M424.206 516.578h-63.08l22.67-74.63h25.15l15.26 74.63Z"/><path fill="#FAAFB2" d="M359.406 558.448c-.75 4.57-3.8 7.85-6.81 7.32-3.01-.53-4.84-4.66-4.09-9.23.27-1.83 1-3.56 2.11-5.05l3.44-19.32 9.35 1.96-4.38 18.84c.58 1.78.71 3.66.38 5.49v-.01Z"/><path fill="#DFDFE0" d="M387.766 441.968s-15.67-.41-17.32 3.71c-1.65 4.12-21.03 102.25-21.03 102.25h12.78l25.56-105.96h.01Z"/><path fill="#FAAFB2" d="M391.096 434.498c7.627 0 13.81-6.183 13.81-13.81 0-7.628-6.183-13.81-13.81-13.81-7.627 0-13.81 6.182-13.81 13.81 0 7.627 6.183 13.81 13.81 13.81Z"/><path fill="#2F2E43" d="M393.266 403.748s-17.73 26.38-14.75 42.83l-10.31-6.46s7.26-33.31 18.09-35.9l6.98-.48-.01.01ZM411.096 516.578h-41.4l-22.65 92.959c-.42 3.93 2.07 7.591 5.89 8.611 12.43 3.33 42.25 8.039 87.38-5.091 4.34-1.26 6.81-5.849 5.44-10.159l-34.66-86.32Z"/><path fill="#DFDFE0" d="m394.356 441.948 12.88-.57c5.58.42 10.62 3.46 13.61 8.18 9.1 14.38 26.12 44.7 10.92 48.85-20.03 5.47-29.74-24.99-29.74-24.99l-7.67-31.48v.01Z"/><path fill="#FAAFB2" d="M389.936 450.988c-2.65-3.8-2.74-8.28-.21-10 2.53-1.72 6.72-.03 9.36 3.78 1.08 1.5 1.77 3.25 2 5.09l11 16.26-8.07 5.11-9.98-16.57c-1.66-.88-3.06-2.14-4.09-3.67h-.01Z"/><path fill="#DFDFE0" d="m396.446 464.138 9.09-8.37 17.97 16.73-16.71 11.42-10.35-19.78Z"/></g><defs><clipPath id="a"><path fill="#fff" d="M0 0h513v700H0z"/></clipPath></defs></svg>